<svg xmlns="http://www.w3.org/2000/svg" viewBox="0 0 272.63 293.95"><defs><style>.cls-1{fill:#7ec600;}.cls-2{fill:#398b4a;}.cls-3{fill:#ed1c24;}.cls-4{fill:#fff;}</style></defs><title>Asset 19</title><g id="Layer_2" data-name="Layer 2"><g id="Layer_1-2" data-name="Layer 1"><rect class="cls-1" x="36.75" y="74.78" width="36.58" height="40.23"/><path class="cls-1" d="M117.59,140.64c0-6.8-3.54-12.32-7.91-12.32H36.75v43.42c0,8.5,6.27,15.4,14,15.4h66.84Z"/><path class="cls-1" d="M241,187.14c7.73,0,14-6.9,14-15.4v-97h-32.8V187.14Z"/><path class="cls-1" d="M36.75,41.62V65.07H255V41.62a17,17,0,0,0-.18-2.38H36.93A17,17,0,0,0,36.75,41.62Z"/><path class="cls-2" d="M162.64,187.14h53.23V128.88H127.32a27.8,27.8,0,0,1,.25,3.7v54.56Z"/><path class="cls-1" d="M84.68,218.6v38.45h25c4.37,0,7.91-5.52,7.91-12.32V206.56h-22C89.59,206.56,84.68,212,84.68,218.6Z"/><path class="cls-1" d="M146.9,206.56H127.57v46.23c0,9.71-5,17.58-11.29,17.58H84.68V294h73.16V218.6C157.84,212,152.94,206.56,146.9,206.56Z"/><rect class="cls-1" x="175.5" y="203.78" width="70.64" height="90.17"/><path class="cls-1" d="M255,203.62V294h17.66V181.81C272.63,193.08,264.91,202.36,255,203.62Z"/><path class="cls-1" d="M.17,270.37V256.62a5.29,5.29,0,0,0,2,.43H67V203.78H40.33c-11,0-20-9.84-20-22V128.32H2.21a5.29,5.29,0,0,0-2,.43V115H20.35V74.78H.17V65.07H20.35V39.24H0V294H67V270.37Z"/><polygon class="cls-1" points="154.06 74.78 82.16 74.78 82.16 115 116.22 115 116.28 115 154.06 115 154.06 74.78"/><rect class="cls-1" x="162.89" y="74.78" width="52.98" height="40.23"/><path class="cls-3" d="M213.62,44.45C213.62,19.9,194.69,0,171.34,0s-42.28,19.9-42.28,44.45c0,0-5,23.49,42.13,104.33V149l.08-.13a.54.54,0,0,0,.07.13v-.26C213.18,77,213.93,50.42,213.58,45.39,213.58,45.08,213.62,44.77,213.62,44.45Z"/><path class="cls-4" d="M196.18,67.38,180.3,51.5a18.71,18.71,0,1,0-5.91,5.82l15.93,15.93a3.89,3.89,0,0,0,5.52,0l.34-.34A3.91,3.91,0,0,0,196.18,67.38Zm-44.07-26a12.42,12.42,0,1,1,12.42,12.42A12.42,12.42,0,0,1,152.11,41.39Z"/></g></g></svg>