<svg xmlns="http://www.w3.org/2000/svg" viewBox="0 0 275 275.14"><defs><style>.cls-1{fill:#e4aa02;}.cls-2{fill:#ffc91f;}.cls-3{fill:#fff;}</style></defs><title>Asset 18</title><g id="Layer_2" data-name="Layer 2"><g id="Layer_1-2" data-name="Layer 1"><path class="cls-1" d="M137.5,172.49c-72.18,0-131.36-30.64-137-69.61A48.65,48.65,0,0,0,0,109.39c0,44.29,61.56,80.19,137.5,80.19S275,153.68,275,109.39a48.65,48.65,0,0,0-.45-6.51C268.86,141.85,209.68,172.49,137.5,172.49Z"/><ellipse class="cls-1" cx="137.5" cy="81.84" rx="137.5" ry="80.19"/><ellipse class="cls-2" cx="137.5" cy="75.78" rx="137.5" ry="75.78"/><path class="cls-1" d="M137.5,200.6C65.32,200.6,6.14,170,.45,131A48.8,48.8,0,0,0,0,137.5c0,44.29,61.56,80.19,137.5,80.19S275,181.79,275,137.5a48.8,48.8,0,0,0-.45-6.52C268.86,170,209.68,200.6,137.5,200.6Z"/><path class="cls-1" d="M137.5,228.16c-72.18,0-131.36-30.65-137-69.62A48.69,48.69,0,0,0,0,165.06c0,44.28,61.56,80.18,137.5,80.18S275,209.34,275,165.06a48.69,48.69,0,0,0-.45-6.52C268.86,197.51,209.68,228.16,137.5,228.16Z"/><path class="cls-3" d="M188.68,54.27A190.56,190.56,0,0,0,163.26,53a186.23,186.23,0,0,0-23.63,1.86L118.69,35A25.19,25.19,0,0,1,127,32.23c2.64-.39,6.76-1,11.09,1.1a15.79,15.79,0,0,1,5.44,4.41L163.88,30s-2.75-8.27-23.7-9.37S106.57,24,106.57,24L95.55,14,79,19.56,89.48,30C81.22,31.68,68.54,40.5,68.54,40.5c-13.23,11.57-1.65,20.94-1.65,20.94,12.12,16,65,7.16,65,7.16l23.7,22.6L149,93.4c-18.74,3.31-22.59-3.3-22.59-3.3l-21.5,7.16c9.37,10.47,27,9.92,27,9.92,23.14,1.1,34.72-5.51,34.72-5.51l12.12,11,16.53-5.51L183.72,96.71c2.84-.55,14.63-3.19,20.94-13.78,1.53-2.56,4.8-8.05,3.31-14.33C206.23,61.24,198.59,55.49,188.68,54.27ZM90,55.93c-12.12-7.72,10.48-16,10.48-16l19.28,17.63C93.34,62.54,90,55.93,90,55.93ZM172.7,85.69,152.86,67c20.94-5,29.76,1.65,29.76,1.65C193.64,78,172.7,85.69,172.7,85.69Z"/><circle class="cls-3" cx="226" cy="226.14" r="49"/><path class="cls-2" d="M231,199H205v54.12h44V221.88Zm-.1,5.33,12.47,15.77H230.85Zm12.47,43.56H211V204.25H226.3v20.08h17Z"/><rect class="cls-2" x="214.07" y="210.36" width="7.86" height="0.87"/><rect class="cls-2" x="214.07" y="215.6" width="9.6" height="0.87"/><rect class="cls-2" x="214.07" y="219.96" width="11.35" height="0.87"/><rect class="cls-2" x="214.95" y="226.07" width="27.94" height="0.87"/><rect class="cls-2" x="214.07" y="231.31" width="17.46" height="0.87"/><rect class="cls-2" x="216.69" y="238.3" width="21.83" height="0.87"/><rect class="cls-2" x="214.95" y="242.66" width="26.19" height="0.87"/></g></g></svg>