<svg xmlns="http://www.w3.org/2000/svg" viewBox="0 0 309 220.03"><defs><style>.cls-1{fill:#fff;}.cls-2{fill:#603813;}.cls-3{fill:#ccc;}.cls-4{fill:red;}.cls-5{fill:#ba9043;}.cls-6{fill:#8c6239;}.cls-7{fill:#754c24;}.cls-8{fill:#d5ad3e;}.cls-9{fill:#020202;}.cls-10{fill:#cc7c50;}.cls-11{fill:#a76452;}.cls-12{fill:#a53b24;}</style></defs><title>Asset 5</title><g id="Layer_2" data-name="Layer 2"><g id="Layer_1-2" data-name="Layer 1"><rect class="cls-1" y="54.85" width="124.37" height="160.72"/><path class="cls-2" d="M0,50.38V220H124.37V50.38Zm119.58,163H4.78V57.08h114.8Z"/><rect class="cls-3" x="12.44" y="64.73" width="21.05" height="21.05"/><rect class="cls-3" x="12.44" y="94.71" width="21.05" height="21.05"/><rect class="cls-3" x="12.44" y="124.68" width="21.05" height="21.05"/><rect class="cls-3" x="12.44" y="154.66" width="21.05" height="21.05"/><rect class="cls-3" x="12.44" y="184.63" width="21.05" height="21.05"/><path class="cls-4" d="M15.63,77.76s5.39.51,7.9,5.15c0,0,3.52-8.41,15.69-15.82,0,0-12.67,5.78-16.06,10.67C23.16,77.76,17.26,76.13,15.63,77.76Z"/><path class="cls-4" d="M15.63,108.38s5.39.5,7.9,5.14c0,0,3.52-8.41,15.69-15.81,0,0-12.67,5.77-16.06,10.67C23.16,108.38,17.26,106.75,15.63,108.38Z"/><path class="cls-4" d="M15.63,139s5.39.5,7.9,5.15c0,0,3.52-8.41,15.69-15.82,0,0-12.67,5.77-16.06,10.67C23.16,139,17.26,137.36,15.63,139Z"/><path class="cls-4" d="M15.63,198.3s5.39.5,7.9,5.15c0,0,3.52-8.41,15.69-15.82,0,0-12.67,5.78-16.06,10.67C23.16,198.3,17.26,196.67,15.63,198.3Z"/><rect x="46.88" y="65.69" width="52.93" height="1.91"/><rect x="46.88" y="82.91" width="64.41" height="2.55"/><rect x="46.88" y="72.71" width="29.98" height="2.55"/><rect x="46.88" y="96.3" width="54.21" height="1.28"/><rect x="46.88" y="102.68" width="35.08" height="1.28"/><rect x="46.88" y="126.92" width="47.2" height="1.28"/><rect x="46.88" y="136.48" width="51.02" height="1.28"/><rect x="46.88" y="158.17" width="22.32" height="1.28"/><rect x="46.88" y="165.18" width="35.08" height="1.91"/><rect x="46.88" y="190.06" width="40.82" height="1.91"/><rect x="46.88" y="195.8" width="13.39" height="1.28"/><rect x="46.88" y="200.26" width="29.98" height="1.28"/><rect class="cls-5" x="139.67" width="134.57" height="110.65"/><rect class="cls-6" x="132.66" width="148.6" height="21.68"/><polygon class="cls-7" points="197.07 0 197.07 39.54 207.91 30.61 216.84 38.27 216.84 0 197.07 0"/><path class="cls-8" d="M147.16,68.88V80.26a9.16,9.16,0,0,0,7.91,9.08v15.59h-4.75v1.58h12v-1.58H157.6V89.34a9.16,9.16,0,0,0,7.9-9.08V68.88Z"/><rect class="cls-9" x="247.07" y="90.56" width="1.12" height="15.94"/><rect class="cls-9" x="249.32" y="90.56" width="2.92" height="15.94"/><rect class="cls-9" x="253.81" y="90.56" width="1.35" height="15.94"/><rect class="cls-9" x="255.83" y="90.56" width="0.9" height="15.94"/><rect class="cls-9" x="267.06" y="90.56" width="1.12" height="15.94"/><rect class="cls-9" x="263.02" y="90.56" width="2.92" height="15.94"/><rect class="cls-9" x="260.1" y="90.56" width="1.35" height="15.94"/><rect class="cls-9" x="258.53" y="90.56" width="0.9" height="15.94"/><rect class="cls-10" x="83.86" y="109.7" width="213.98" height="110.33"/><rect class="cls-11" x="72.71" y="109.7" width="236.29" height="21.62"/><polygon class="cls-12" points="175.13 109.7 175.13 149.12 192.37 140.22 206.57 147.85 206.57 109.7 175.13 109.7"/><rect class="cls-9" x="89.02" y="137.76" width="2.11" height="18.83"/><rect class="cls-9" x="93.25" y="137.76" width="5.5" height="18.83"/><rect class="cls-9" x="101.7" y="137.76" width="2.54" height="18.83"/><rect class="cls-9" x="105.51" y="137.76" width="1.69" height="18.83"/><rect class="cls-9" x="126.65" y="137.76" width="2.11" height="18.83"/><rect class="cls-9" x="119.04" y="137.76" width="5.5" height="18.83"/><rect class="cls-9" x="113.54" y="137.76" width="2.54" height="18.83"/><rect class="cls-9" x="110.58" y="137.76" width="1.69" height="18.83"/><polygon class="cls-9" points="89.61 187.26 98.67 187.26 98.67 216.84 106.33 216.84 106.33 187.26 115.1 187.26 102.35 165.18 89.61 187.26"/><polygon class="cls-9" points="129.43 165.18 116.69 187.26 125.75 187.26 125.75 216.84 133.41 216.84 133.41 187.26 142.18 187.26 129.43 165.18"/><polygon class="cls-1" points="286.12 182.17 265.25 182.17 265.25 161.29 257.7 161.29 257.7 182.17 236.82 182.17 236.82 189.72 257.7 189.72 257.7 210.59 265.25 210.59 265.25 189.72 286.12 189.72 286.12 182.17"/></g></g></svg>