<svg xmlns="http://www.w3.org/2000/svg" viewBox="0 0 265.82 265.82"><defs><style>.cls-1{fill:#1a9eff;}.cls-2{fill:#c69c6d;}.cls-3{fill:#fff;}</style></defs><title>Asset 25</title><g id="Layer_2" data-name="Layer 2"><g id="Layer_1-2" data-name="Layer 1"><path class="cls-1" d="M88.4,247.06l61.07,6.21,65.36-30a90.26,90.26,0,0,0,5.29-13.66S219,160.7,169.89,148.32c-8.55,7.9-20.94,12.87-34.73,12.87-14.15,0-26.82-5.24-35.38-13.5H98.59C46.83,158.94,45.7,209.58,45.7,209.58a88.15,88.15,0,0,0,6.75,16.51Z"/><path d="M132.91,0A132.91,132.91,0,1,0,265.82,132.91,132.92,132.92,0,0,0,132.91,0Zm0,246.77A113.86,113.86,0,1,1,246.77,132.91,113.86,113.86,0,0,1,132.91,246.77Z"/><ellipse class="cls-2" cx="132.91" cy="96.62" rx="41.73" ry="45.36"/><path class="cls-3" d="M200.72,206.64l-15.89-15.88a18.75,18.75,0,1,0-5.91,5.82l15.93,15.93a3.89,3.89,0,0,0,5.52,0l.35-.34A3.92,3.92,0,0,0,200.72,206.64Zm-44.08-26a12.42,12.42,0,1,1,12.42,12.42A12.41,12.41,0,0,1,156.64,180.65Z"/></g></g></svg>