<svg xmlns="http://www.w3.org/2000/svg" viewBox="0 0 265.82 265.82"><defs><style>.cls-1{fill:#1a9eff;}.cls-2{fill:#c69c6d;}.cls-3{fill:#fff;}</style></defs><title>Asset 24</title><g id="Layer_2" data-name="Layer 2"><g id="Layer_1-2" data-name="Layer 1"><path class="cls-1" d="M88.4,247.06l61.07,6.21,65.36-30a90.26,90.26,0,0,0,5.29-13.66S219,160.7,169.89,148.32c-8.55,7.9-20.94,12.87-34.73,12.87-14.15,0-26.82-5.24-35.38-13.5H98.59C46.83,158.94,45.7,209.58,45.7,209.58a88.15,88.15,0,0,0,6.75,16.51Z"/><path d="M132.91,0A132.91,132.91,0,1,0,265.82,132.91,132.92,132.92,0,0,0,132.91,0Zm0,246.77A113.86,113.86,0,1,1,246.77,132.91,113.86,113.86,0,0,1,132.91,246.77Z"/><ellipse class="cls-2" cx="132.91" cy="96.62" rx="41.73" ry="45.36"/><path class="cls-3" d="M164.34,212.18l-8.78,2.71-1.58-1.8,2.25-9,21.4-21.62L175.15,180l-22.3,22.3-4,14.18s-2.25,5.18,3.15,3.16l14.42-4.06,22.29-22.07-2.93-2.92Z"/><polygon class="cls-3" points="161.64 209.93 183.26 188.31 179.65 184.71 158.03 206.33 161.19 207 161.64 209.93"/><rect class="cls-3" x="183.21" y="173.42" width="4.14" height="19.43" transform="translate(-75.23 184.65) rotate(-45)"/><path class="cls-3" d="M198.11,178.4l-7.89-7.9a3.52,3.52,0,0,0-5,0l-.05.05,0,.06h0L182.71,173l2.49,2.49,7.89,7.89h0l2.49,2.48,2.43-2.43h0l.06-.05.05,0A3.52,3.52,0,0,0,198.11,178.4Z"/></g></g></svg>