<svg xmlns="http://www.w3.org/2000/svg" viewBox="0 0 297 185.63"><defs><style>.cls-1{fill:#42210b;}.cls-2{fill:#29abe2;opacity:0.57;}.cls-3{fill:#4d4d4d;}.cls-4{fill:#ff931e;}.cls-5{fill:#b3b3b3;}.cls-6{fill:#333;}.cls-7{fill:#fff;}</style></defs><title>Asset 26</title><g id="Layer_2" data-name="Layer 2"><g id="Layer_1-2" data-name="Layer 1"><path class="cls-1" d="M289.48,79.42,238.73,22.09H186.09v101.5H289.48v-4.7H278.2l-4.7-24.43h16ZM264.1,72.84H195.49V35.25c0-3.76,2.82-2.82,2.82-2.82h37.6L264.1,65.32C270.68,72.84,264.1,72.84,264.1,72.84Z"/><path class="cls-2" d="M16,0H171a13.66,13.66,0,0,1,13.66,13.66V123.59a0,0,0,0,1,0,0H2.35a0,0,0,0,1,0,0V13.66A13.66,13.66,0,0,1,16,0Z"/><rect class="cls-3" x="10.34" y="5.15" width="164.48" height="5.62"/><rect class="cls-3" x="10.34" y="7.96" width="4.7" height="108.61"/><rect class="cls-1" y="124.53" width="297" height="23.5" rx="6.68"/><path class="cls-4" d="M273.5,94.46h7.82s3.46-.94,3.46,4.7L283.84,117s-.19,1.88-1.5,1.88H278.2Z"/><circle cx="59.21" cy="151.79" r="33.84"/><circle class="cls-5" cx="58.74" cy="151.32" r="19.27"/><path class="cls-6" d="M35.72,149.91a19.28,19.28,0,0,1,30.07-20.68c-1.07-.4-10.61-3.85-19.74,1.88C36,137.44,35.72,149.14,35.72,149.91Z"/><path class="cls-6" d="M48.87,172.47c8,6.17,18.64,6.83,26.32,1.88,9.47-6.12,12.9-19.83,6.58-31,3.85,10.64.19,22.31-8.46,28.2A23.8,23.8,0,0,1,48.87,172.47Z"/><circle class="cls-6" cx="59.21" cy="151.79" r="8.46"/><circle cx="224.63" cy="151.79" r="33.84"/><circle class="cls-5" cx="224.16" cy="151.32" r="19.27"/><path class="cls-6" d="M201.13,149.91a19.29,19.29,0,0,1,30.08-20.68c-1.07-.4-10.62-3.85-19.74,1.88C201.39,137.44,201.14,149.14,201.13,149.91Z"/><path class="cls-6" d="M214.29,172.47c8,6.17,18.64,6.83,26.32,1.88,9.47-6.12,12.89-19.83,6.58-31,3.85,10.64.19,22.31-8.46,28.2A23.8,23.8,0,0,1,214.29,172.47Z"/><circle class="cls-6" cx="224.63" cy="151.79" r="8.46"/><polygon class="cls-7" points="125.12 58.96 104.25 58.96 104.25 38.09 96.7 38.09 96.7 58.96 75.82 58.96 75.82 66.51 96.7 66.51 96.7 87.39 104.25 87.39 104.25 66.51 125.12 66.51 125.12 58.96"/></g></g></svg>