<svg xmlns="http://www.w3.org/2000/svg" viewBox="0 0 297 185.63"><defs><style>.cls-1{fill:#42210b;}.cls-2{fill:#29abe2;opacity:0.57;}.cls-3{fill:#4d4d4d;}.cls-4{fill:#ff931e;}.cls-5{fill:#b3b3b3;}.cls-6{fill:#333;}.cls-7{fill:#fff;}</style></defs><title>Asset 27</title><g id="Layer_2" data-name="Layer 2"><g id="Layer_1-2" data-name="Layer 1"><path class="cls-1" d="M289.48,79.42,238.73,22.09H186.09v101.5H289.48v-4.7H278.2l-4.7-24.43h16ZM264.1,72.84H195.49V35.25c0-3.76,2.82-2.82,2.82-2.82h37.6L264.1,65.32C270.68,72.84,264.1,72.84,264.1,72.84Z"/><path class="cls-2" d="M16,0H171a13.66,13.66,0,0,1,13.66,13.66V123.59a0,0,0,0,1,0,0H2.35a0,0,0,0,1,0,0V13.66A13.66,13.66,0,0,1,16,0Z"/><rect class="cls-3" x="10.34" y="5.15" width="164.48" height="5.62"/><rect class="cls-3" x="10.34" y="7.96" width="4.7" height="108.61"/><rect class="cls-1" y="124.53" width="297" height="23.5" rx="6.68"/><path class="cls-4" d="M273.5,94.46h7.82s3.46-.94,3.46,4.7L283.84,117s-.19,1.88-1.5,1.88H278.2Z"/><circle cx="59.21" cy="151.79" r="33.84"/><circle class="cls-5" cx="58.74" cy="151.32" r="19.27"/><path class="cls-6" d="M35.72,149.91a19.28,19.28,0,0,1,30.07-20.68c-1.07-.4-10.61-3.85-19.74,1.88C36,137.44,35.72,149.14,35.72,149.91Z"/><path class="cls-6" d="M48.87,172.47c8,6.17,18.64,6.83,26.32,1.88,9.47-6.12,12.9-19.83,6.58-31,3.85,10.64.19,22.31-8.46,28.2A23.8,23.8,0,0,1,48.87,172.47Z"/><circle class="cls-6" cx="59.21" cy="151.79" r="8.46"/><circle cx="224.63" cy="151.79" r="33.84"/><circle class="cls-5" cx="224.16" cy="151.32" r="19.27"/><path class="cls-6" d="M201.13,149.91a19.29,19.29,0,0,1,30.08-20.68c-1.07-.4-10.62-3.85-19.74,1.88C201.39,137.44,201.14,149.14,201.13,149.91Z"/><path class="cls-6" d="M214.29,172.47c8,6.17,18.64,6.83,26.32,1.88,9.47-6.12,12.89-19.83,6.58-31,3.85,10.64.19,22.31-8.46,28.2A23.8,23.8,0,0,1,214.29,172.47Z"/><circle class="cls-6" cx="224.63" cy="151.79" r="8.46"/><path class="cls-7" d="M88.52,82.12l-8.78,2.7L78.16,83l2.25-9,21.4-21.62-2.48-2.48L77,72.21,73,86.4s-2.25,5.18,3.15,3.15l14.42-4,22.29-22.07-2.93-2.93Z"/><polygon class="cls-7" points="85.82 79.87 107.44 58.25 103.83 54.64 82.22 76.26 85.37 76.94 85.82 79.87"/><rect class="cls-7" x="107.39" y="43.35" width="4.14" height="19.43" transform="translate(-5.46 92.95) rotate(-45)"/><path class="cls-7" d="M122.29,48.33l-7.89-7.89a3.5,3.5,0,0,0-5,0l-.05.05,0,0h0L106.89,43l2.49,2.49,7.89,7.89h0l2.49,2.49,2.43-2.44h0l0,0,.05-.05A3.52,3.52,0,0,0,122.29,48.33Z"/></g></g></svg>